<?xml version="1.0" encoding="UTF-8"?>
<svg version="1.1" xmlns="http://www.w3.org/2000/svg" width="512" height="512">
<path d="M0 0 C0.68203401 -0.00235223 1.36406801 -0.00470446 2.06676972 -0.00712797 C4.36289799 -0.01380977 6.65896956 -0.01336 8.95510674 -0.01294994 C10.61372745 -0.01624908 12.27234737 -0.01997475 13.93096626 -0.02409142 C18.49745818 -0.03411388 23.06393696 -0.03782861 27.63043833 -0.04048073 C32.55221967 -0.04438304 37.4739906 -0.05396141 42.3957653 -0.0626936 C54.28597911 -0.08245982 66.17619377 -0.0925243 78.0664199 -0.10142139 C83.66475182 -0.10580392 89.26308279 -0.11117081 94.86141396 -0.11641026 C113.46973092 -0.1334225 132.0780473 -0.14791699 150.68637085 -0.155159 C155.51576679 -0.15706891 160.34516272 -0.15898924 165.17455864 -0.16094494 C166.37489128 -0.16142868 167.57522392 -0.16191242 168.81193028 -0.16241082 C188.25949462 -0.17071233 207.70699747 -0.19605134 227.15453495 -0.22852562 C247.11751018 -0.26158904 267.08045415 -0.2796071 287.04345691 -0.28280324 C298.25332506 -0.28496897 309.46310354 -0.29372692 320.67294502 -0.31926441 C330.21912865 -0.34096156 339.76520084 -0.34902664 349.31140633 -0.33929763 C354.18150094 -0.33475013 359.05136555 -0.3366654 363.92142868 -0.35605907 C368.38267653 -0.37367122 372.84352624 -0.37270883 377.3047782 -0.35716178 C378.91586708 -0.35478276 380.52698337 -0.35912456 382.13803031 -0.37099043 C394.60880358 -0.45712805 403.96329299 1.06969518 413.2614727 9.84125233 C418.77576358 16.22564828 421.3639279 23.43898597 421.37616253 31.77202511 C421.37851476 32.45320487 421.38086699 33.13438463 421.3832905 33.8362062 C421.38998615 36.13544029 421.38952211 38.43461794 421.38911247 40.73386097 C421.39241075 42.39233133 421.39613624 44.05080088 421.40025395 45.7092694 C421.41028626 50.27995129 421.41399272 54.85062004 421.41664326 59.42131138 C421.42054269 64.34581786 421.4301213 69.2703139 421.43885612 74.19481373 C421.45863113 86.09433873 421.46868821 97.99386459 421.47758391 109.89340192 C421.48196526 115.49485347 421.48733248 121.09630406 421.49257278 126.69775486 C421.50958636 145.31461166 421.52408089 163.93146787 421.53132153 182.54833126 C421.53323147 187.38099767 421.5351518 192.21366407 421.53710747 197.04633045 C421.53759121 198.24749091 421.53807495 199.44865136 421.53857335 200.68621062 C421.54687495 220.14744712 421.5722135 239.60862219 421.60468815 259.06983186 C421.63774568 279.04294072 421.65576912 299.01601834 421.65896577 318.9891547 C421.66113211 330.20627169 421.66989891 341.42329909 421.69542694 352.64038944 C421.71711611 362.19284751 421.72519314 371.74519424 421.71546016 381.29767413 C421.71091026 386.17168834 421.71284182 391.04547273 421.7322216 395.91945553 C421.74981677 400.38315819 421.74888521 404.84646277 421.73332431 409.31016944 C421.73094269 410.92328923 421.73530052 412.53643633 421.74715296 414.14951433 C421.80486245 422.52361491 421.71604689 429.7935382 417.24194145 437.13422108 C416.78432426 437.93215076 416.32670708 438.73008045 415.8552227 439.55218983 C410.4801733 446.86419396 404.09148418 451.0630515 395.24194145 453.13422108 C383.52063515 454.22398577 374.59623116 452.98787321 365.42944145 445.44672108 C356.82739102 437.22461987 354.26879214 427.78414049 353.98022842 416.12482738 C353.96462141 413.85484255 353.95968731 411.58476789 353.96346855 409.31473255 C353.95767615 408.05662128 353.95188375 406.79851001 353.94591582 405.50227416 C353.93021799 402.03596943 353.92669082 398.56974598 353.92526722 395.10341001 C353.92155518 391.35574299 353.90639083 387.60811964 353.89265251 383.8604784 C353.87043226 377.37597968 353.85538758 370.89149661 353.84528542 364.40696812 C353.8306691 355.03155772 353.80512407 345.65620185 353.77695413 336.28082354 C353.73153968 321.06807078 353.69490281 305.85531015 353.66381645 290.64252186 C353.63360898 275.8690703 353.59924863 261.09563799 353.55932426 246.32220936 C353.55563194 244.95511924 353.55563194 244.95511924 353.55186503 243.56041114 C353.53949 238.98799149 353.52703355 234.41557208 353.51453662 229.84315276 C353.41104892 191.94020209 353.32181929 154.03722849 353.24194145 116.13422108 C352.42013077 116.95755064 351.59832008 117.78088021 350.75160605 118.62915915 C314.53323114 154.91420993 278.31237271 191.19677946 242.07884026 227.46669483 C241.53028513 228.01580219 240.98173 228.56490954 240.41655199 229.13065652 C228.49496611 241.06421402 216.57293462 252.99732624 204.650444 264.92997984 C198.80366298 270.78175021 192.95698044 276.63361897 187.11034966 282.48553944 C186.52853784 283.06787429 185.94672602 283.65020915 185.34728354 284.25019051 C166.48902265 303.12549689 147.63727365 322.0072912 128.78889056 340.89246085 C109.41974883 360.29933679 90.04405642 379.69964878 70.66009721 399.09172528 C67.9222727 401.83070241 65.18452318 404.56975448 62.44681931 407.3088522 C61.90799743 407.84794377 61.36917554 408.38703534 60.81402573 408.94246302 C52.14055925 417.62065643 43.47402601 426.30574207 34.81006572 434.99342495 C26.09978211 443.72726253 17.38223611 452.45379707 8.65723527 461.17293277 C3.93000919 465.8973843 -0.79366733 470.62525052 -5.5087986 475.36178303 C-9.82514483 479.69757734 -14.150609 484.0240523 -18.48352648 488.34328458 C-20.04976445 489.90783085 -21.6126186 491.47577345 -23.17172819 493.04742344 C-25.29197314 495.18372743 -27.42421614 497.30730687 -29.55985355 499.4282074 C-30.46293095 500.34704688 -30.46293095 500.34704688 -31.38425234 501.28444877 C-39.81356646 509.58295327 -47.9000975 512.44672108 -59.54736519 512.44672108 C-69.12221645 512.25624139 -75.81159313 508.99865217 -82.7775898 502.42718983 C-90.26538803 493.75788497 -91.43805159 484.07844727 -90.92407417 473.08588123 C-89.62359051 457.79754834 -72.26599888 445.50113471 -62.0976429 435.35355091 C-60.50573877 433.76121022 -58.91405461 432.1686496 -57.32257038 430.57588923 C-52.96694172 426.21803227 -48.60821421 421.86328654 -44.2489599 417.50905681 C-40.02572709 413.28970725 -35.80485866 409.06799414 -31.5839274 404.84634246 C-22.95502692 396.21613127 -14.32380997 387.58824038 -5.69125366 378.96168613 C2.85156014 370.42479673 11.39333246 361.88686744 19.93372726 353.34755802 C20.46546577 352.81588825 20.99720428 352.28421849 21.54505607 351.73643752 C24.24566739 349.03616455 26.94626021 346.3358731 29.64684593 343.63557453 C48.75702876 324.52749008 67.8695272 305.42172333 86.98339653 286.31732655 C105.54804993 267.76186287 124.11164869 249.20534513 142.67382622 230.64740467 C143.24635995 230.07500246 143.81889369 229.50260025 144.40877693 228.91285252 C150.15858539 223.16436262 155.90837248 217.41585134 161.65814391 211.6673244 C173.37027366 199.95773062 185.08254604 188.24827949 196.79490471 176.53891468 C197.33337685 176.00057983 197.87184898 175.46224499 198.42663846 174.90759696 C234.36268289 138.98074755 270.3020619 103.05723393 306.24194145 67.13422108 C305.58344015 67.13362399 304.92493885 67.1330269 304.24648297 67.13241172 C265.20745304 67.09650799 226.16850245 67.039854 187.12954415 66.95630012 C182.44077325 66.94628282 177.752002 66.93643866 173.06323051 66.92670155 C171.66307154 66.92378949 171.66307154 66.92378949 170.23462652 66.9208186 C155.12588013 66.88980813 140.01714892 66.8728206 124.90837671 66.86102685 C109.40225497 66.84861036 93.89621284 66.82109769 78.39014137 66.77960801 C68.82413908 66.7544869 59.25826887 66.74110279 49.69223313 66.7427915 C43.13003001 66.74282129 36.5679613 66.72817087 30.00581057 66.7020568 C26.2212897 66.68742731 22.43704443 66.67919364 18.65250015 66.68841839 C14.54379769 66.69826354 10.43582136 66.67715581 6.32717705 66.65320301 C5.13843865 66.66096343 3.94970024 66.66872385 2.72493947 66.67671943 C-7.9619141 66.56652555 -15.96220758 63.79993093 -23.7775898 56.42718983 C-31.26222538 47.76154666 -32.43988772 38.07948645 -31.9284687 27.09027576 C-31.17509767 18.44269882 -26.0696759 11.75810508 -19.75805855 6.13422108 C-13.18905442 1.61465994 -7.95347575 0.01168619 0 0 Z " fill="#000000" transform="translate(90.75805854797363,-0.13422107696533203)"/>
</svg>
